<?xml version="1.0" encoding="utf-8"?>
<!-- Generator: Adobe Illustrator 21.0.0, SVG Export Plug-In . SVG Version: 6.00 Build 0)  -->
<svg version="1.1" id="Calque_1" xmlns="http://www.w3.org/2000/svg" xmlns:xlink="http://www.w3.org/1999/xlink" x="0px" y="0px"
	 viewBox="0 0 27.8 27.8" style="enable-background:new 0 0 27.8 27.8;" xml:space="preserve">
<style type="text/css">
	.st0{fill:#F5F5F5;}
	.st1{fill:#FF9000;}
	.st2{fill:#FFFFFF;}
</style>
<rect x="1950.3" y="-7395.5" class="st0" width="1319.5" height="147"/>
<rect x="827.4" y="-4693.9" class="st0" width="1319.5" height="147"/>
<g>
	<circle class="st1" cx="13.9" cy="13.9" r="13.9"/>
</g>
<g>
	<path class="st2" d="M9.2,7.1c0.3,0,0.6,0.1,1,0.1c0.4,0,0.9,0.1,1.4,0.1c0.5,0,1,0.1,1.6,0.1c0.6,0,1.1,0.1,1.6,0.1
		c1.3,0.1,2.6,0.2,4.1,0.3l-0.1,0.8c-0.1,0-0.2,0-0.5,0.1c-0.3,0-0.6,0.1-1.1,0.1c-0.4,0-1,0.1-1.6,0.1c-0.6,0-1.3,0-2,0
		c-0.1,0.5-0.1,1-0.2,1.4c-0.1,0.4-0.2,0.8-0.2,1.2c0.2,0,0.4,0.1,0.8,0.1c0.3,0,0.7,0.1,1.1,0.1c0.4,0.1,0.7,0.1,1.1,0.2
		s0.6,0.1,0.8,0.2c0,0.8,0,1.6-0.1,2.3c0,0.7-0.1,1.4-0.2,2.1c-0.1,0.8-0.3,1.4-0.5,2c0.7,0,1.4,0,1.8,0c0.5,0,0.7,0,0.7,0v1.3
		c-1.2,0.2-2.3,0.2-3.4,0.2c-1.1,0-2-0.1-2.8-0.2c-1-0.1-1.8-0.3-2.7-0.4l0.2-0.9c0.6,0,1.3,0.1,2.1,0.1c0.8,0,1.6,0,2.4,0
		c0-0.2,0.1-0.5,0.2-0.9s0.2-0.9,0.3-1.4c-0.8-0.1-1.5-0.2-2.1-0.3c-0.6-0.1-1.1-0.3-1.5-0.4c-0.5-0.2-0.9-0.4-1.2-0.6
		c0.2-0.4,0.4-0.9,0.6-1.4c0.2-0.5,0.3-1.1,0.5-1.7c0.1-0.6,0.3-1.1,0.4-1.6c0.1-0.5,0.2-1,0.3-1.4c-0.4,0-0.9-0.1-1.4-0.1
		c-0.5-0.1-1-0.1-1.5-0.2L9.2,7.1z M13,12.4c-0.1,0.3-0.2,0.6-0.3,0.9c-0.1,0.2-0.2,0.5-0.3,0.6c-0.1,0.2-0.2,0.4-0.2,0.5l3.1,0.8
		c0.1-0.4,0.2-0.9,0.2-1.3c0.1-0.4,0.1-0.8,0.1-1.1c-0.3-0.1-0.6-0.1-0.9-0.2c-0.3-0.1-0.6-0.1-0.9-0.2C13.5,12.5,13.2,12.5,13,12.4
		z"/>
</g>
</svg>
