<?xml version="1.0" encoding="utf-8"?>
<!-- Generator: Adobe Illustrator 21.0.0, SVG Export Plug-In . SVG Version: 6.00 Build 0)  -->
<svg version="1.1" id="Calque_1" xmlns="http://www.w3.org/2000/svg" xmlns:xlink="http://www.w3.org/1999/xlink" x="0px" y="0px"
	 viewBox="0 0 27.8 27.8" style="enable-background:new 0 0 27.8 27.8;" xml:space="preserve">
<style type="text/css">
	.st0{fill:#F5F5F5;}
	.st1{fill:#2B9ED8;}
	.st2{fill:#FFFFFF;}
</style>
<rect x="1950.3" y="-7395.5" class="st0" width="1319.5" height="147"/>
<rect x="827.4" y="-4693.9" class="st0" width="1319.5" height="147"/>
<g>
	<path class="st1" d="M26.2,20.1c0,3.3-2.7,6-6,6H7.6c-3.3,0-6-2.7-6-6V7.3c0-3.3,2.7-6,6-6h12.7c3.3,0,6,2.7,6,6V20.1z"/>
</g>
<g>
	<path class="st2" d="M6.6,14.1c0.2,0,0.5-0.1,0.8-0.1c0.3,0,0.6-0.1,0.9-0.2c-0.1-0.3-0.1-0.6-0.2-1c0-0.3-0.1-0.6-0.1-1
		c-0.2,0-0.5,0-0.6,0c-0.2,0-0.4,0-0.5,0c-0.2,0-0.3,0-0.5,0l-0.1-1.2l1.6-0.1c0-0.5-0.1-0.9-0.1-1.3c0-0.4,0-0.7,0-0.9l1.7-0.2
		l0.2,2.1c0.2,0,0.4,0,0.6-0.1c0.2,0,0.4,0,0.5-0.1c0.2,0,0.3,0,0.5-0.1v1.1c-0.2,0.1-0.5,0.2-0.7,0.2c-0.2,0.1-0.5,0.1-0.7,0.2
		l0.2,1.9c0.4,0,0.7-0.1,1-0.1c0.1,0,0.3,0,0.4-0.1l0.1,1.2c-0.2,0.1-0.4,0.1-0.6,0.2c-0.2,0.1-0.4,0.1-0.7,0.2l0.3,2.4
		c-0.2,0.1-0.5,0.2-0.8,0.3c-0.2,0.1-0.5,0.1-0.8,0.2c-0.3,0.1-0.7,0.1-1,0l-0.2-1c0.1,0,0.3-0.1,0.4-0.1c0.1,0,0.2-0.1,0.4-0.1
		c0.1,0,0.3-0.1,0.4-0.1c0-0.1-0.1-0.3-0.1-0.5c-0.1-0.3-0.1-0.6-0.2-1c-0.5,0-0.9,0.1-1.2,0.1H6.8L6.6,14.1z M13.3,12.3
		c0.2,0,0.4,0,0.6,0c0.2,0,0.4,0,0.7,0c0.3,0,0.5,0,0.9,0c0-0.3-0.1-0.7-0.1-1.2c0-0.4-0.1-0.9-0.1-1.4c-0.9,0.1-1.9,0.1-3,0L12,8.2
		c0.5,0,1,0,1.6,0.1c0.5,0,1.1,0,1.6,0c0-0.5,0-1,0-1.4c0-0.4,0.1-0.7,0.2-1L16.7,6c0,0.3,0.1,0.7,0.1,1c0,0.4,0,0.8,0.1,1.2
		c0.5,0,0.9,0,1.3-0.1c0.4,0,0.8,0,1.1-0.1c0.3,0,0.7,0,1-0.1l0.1,1c-0.3,0.1-0.6,0.2-0.9,0.2c-0.3,0.1-0.6,0.1-1.1,0.2
		C18,9.5,17.5,9.6,17,9.7c0,0.5,0,1,0,1.5c0,0.5,0,0.9,0,1.3c0.5,0,0.9,0.1,1.3,0.1c0.4,0,0.8,0.1,1.1,0.1l0,1.4
		c-0.3,1.1-0.8,2.1-1.4,2.8c0.5,0.2,0.9,0.4,1.3,0.6c0.4,0.2,0.8,0.3,1.2,0.5c0.4,0.2,0.8,0.3,1.1,0.4l-0.8,1.6
		c-0.8-0.1-1.6-0.3-2.3-0.6c-0.7-0.3-1.3-0.7-1.9-1.1c-0.5,0.3-1,0.6-1.5,0.8c-0.5,0.2-1.1,0.4-1.7,0.5l-0.8-1.4
		c0.3-0.1,0.5-0.2,0.8-0.3c0.2-0.1,0.5-0.2,0.8-0.4c0.3-0.2,0.6-0.3,1-0.6c-0.4-0.4-0.7-0.8-0.9-1.1c-0.1-0.2-0.2-0.3-0.3-0.4
		l0.6-0.7c0.2,0.2,0.5,0.5,0.8,0.7c0.3,0.2,0.6,0.4,1,0.6c0.3-0.3,0.6-0.6,0.9-0.9c0.3-0.3,0.5-0.7,0.7-1.1c-0.5,0-1-0.1-1.5-0.1
		c-0.5,0-1-0.1-1.5-0.1s-1.1,0-1.6-0.1L13.3,12.3z"/>
</g>
</svg>
