<?xml version="1.0" encoding="utf-8"?>
<!-- Generator: Adobe Illustrator 21.0.0, SVG Export Plug-In . SVG Version: 6.00 Build 0)  -->
<svg version="1.1" id="Calque_1" xmlns="http://www.w3.org/2000/svg" xmlns:xlink="http://www.w3.org/1999/xlink" x="0px" y="0px"
	 viewBox="0 0 27.8 27.8" style="enable-background:new 0 0 27.8 27.8;" xml:space="preserve">
<style type="text/css">
	.st0{fill:#F5F5F5;}
	.st1{fill:#282828;}
	.st2{fill:#FCFCFC;}
</style>
<rect x="1950.3" y="-7395.5" class="st0" width="1319.5" height="147"/>
<rect x="827.4" y="-4693.9" class="st0" width="1319.5" height="147"/>
<g>
	<path class="st1" d="M26.2,20.1c0,3.3-2.7,6-6,6H7.6c-3.3,0-6-2.7-6-6V7.3c0-3.3,2.7-6,6-6h12.7c3.3,0,6,2.7,6,6V20.1z"/>
</g>
<g>
	<path class="st2" d="M11.5,5.2c0,0.2,0,0.5,0,0.7c0,0.3-0.1,0.6-0.1,0.9c0.1,0,0.3,0,0.4,0.1c0.1,0,0.2,0,0.3,0c0.1,0,0.2,0,0.3,0
		l-0.1,0.7c-0.1,0-0.2,0-0.3,0c-0.1,0-0.2,0-0.3,0c-0.1,0-0.3,0-0.4,0l-0.2,1.2H12c0.2-0.3,0.4-0.6,0.5-0.9c0.2-0.3,0.3-0.6,0.4-0.9
		l1,0.4c-0.1,0.2-0.1,0.5-0.2,0.7s-0.2,0.5-0.3,0.7l1.4,0l0,0.7c-0.3,0.2-0.6,0.3-1,0.4c-0.4,0.1-0.7,0.2-1.1,0.2
		c-0.3,0.5-0.7,1-1.1,1.5c-0.4,0.5-0.9,0.9-1.4,1.2c0.4,0.1,0.7,0.1,1.1,0.2c0.4,0,0.8,0.1,1.1,0.1c0.4,0,0.8,0.1,1.2,0.1l0.2,0.8
		c-0.1,0.2-0.2,0.4-0.4,0.5c-0.2,0.2-0.3,0.3-0.5,0.4c-0.2,0.1-0.4,0.3-0.6,0.4c0.1,0.1,0.2,0.2,0.3,0.3c0.1,0.1,0.2,0.2,0.3,0.3
		c0.3,0,0.6-0.1,0.8-0.1c0.3,0,0.5-0.1,0.8-0.1l0.2,1c-0.1,0-0.2,0.1-0.3,0.1c-0.2,0.1-0.5,0.2-1,0.3c0.2,0.5,0.2,1,0.1,1.4
		c-0.1,0.4-0.3,0.7-0.6,0.9c-0.3,0.2-0.7,0.3-1,0.3c-0.3,0-0.6-0.1-0.8-0.2c-0.3-0.1-0.5-0.3-0.7-0.5l0.4-0.8
		c0.1,0.1,0.2,0.1,0.4,0.2c0.2,0.1,0.3,0.1,0.4,0c0.1,0,0.2-0.1,0.3-0.3c0.1-0.1,0.1-0.4,0.1-0.7c-0.5,0.1-1,0.1-1.6,0.2
		c-0.6,0-1.1,0.1-1.7,0l-0.2-1.3c0.3,0,0.6,0,0.9,0c0.3,0,0.6,0,1,0c0.4,0,0.8,0,1.2-0.1c-0.2-0.2-0.3-0.4-0.5-0.6
		c-0.1-0.1-0.1-0.1-0.2-0.2l1-1.1c-0.3,0.1-0.7,0.1-0.9,0.1c-0.3,0-0.5,0-0.7-0.1c-0.2,0-0.4-0.1-0.6-0.2l0.2-0.9
		c-0.6,0.4-1.3,0.6-1.9,0.7l-0.8-1.1c0.6-0.3,1.2-0.7,1.8-1.1s1.2-0.9,1.8-1.4c-0.5,0-0.9-0.1-1.4-0.1c-0.4,0-0.8-0.1-1.1-0.2
		C8,10,7.6,9.9,7.3,9.8L7.4,9l2.5,0l0-1.3c-0.4,0-0.7-0.1-1.1-0.1s-0.7-0.1-1-0.2L8,6.2c0.3,0.1,0.6,0.1,0.9,0.2
		c0.3,0.1,0.7,0.1,1,0.2L10,5L11.5,5.2z M14.8,12c0.3-0.3,0.6-0.6,0.9-0.9c0.3-0.3,0.5-0.6,0.8-1c0.3-0.4,0.5-0.8,0.7-1.3l1.1,0.4
		c0,0.1,0,0.3-0.1,0.5c0,0.1-0.1,0.3-0.1,0.5S18,10.6,18,10.8c0.3,0,0.5,0,0.8,0c0.3,0,0.6,0,0.8,0s0.6,0,0.8,0
		c0.3,0,0.5-0.1,0.8-0.1v1.5c-0.4,0-0.8,0.1-1.2,0.1c-0.4,0-0.8,0-1.2,0s-0.9-0.1-1.4-0.3c-0.2,0.2-0.4,0.5-0.6,0.7
		c-0.2,0.2-0.5,0.4-0.8,0.5L14.8,12z M17,13.9c0.1,0.1,0.2,0.2,0.4,0.3c0.1,0.1,0.3,0.2,0.4,0.3c0.2,0.1,0.3,0.2,0.5,0.4
		c0.2-0.3,0.3-0.5,0.4-0.8c0.1-0.3,0.2-0.6,0.3-1l1.2,0.3c0,0.2-0.1,0.5-0.1,0.7c0,0.2-0.1,0.5-0.2,0.7c-0.1,0.3-0.2,0.6-0.4,0.9
		c0.7,0.4,1.4,0.8,2.1,1.1l-0.8,1.5c-0.5-0.2-0.9-0.4-1.3-0.5c-0.4-0.2-0.7-0.4-1-0.7c-0.3,0.3-0.6,0.5-0.9,0.7
		c-0.3,0.2-0.7,0.4-1.2,0.5l-0.8-1.1c0.2-0.1,0.3-0.1,0.5-0.3c0.2-0.1,0.3-0.2,0.5-0.4s0.4-0.3,0.6-0.5c-0.2-0.2-0.4-0.5-0.5-0.7
		c-0.2-0.3-0.3-0.5-0.5-0.9L17,13.9z"/>
</g>
</svg>
