<?xml version="1.0" encoding="utf-8"?>
<!-- Generator: Adobe Illustrator 21.0.0, SVG Export Plug-In . SVG Version: 6.00 Build 0)  -->
<svg version="1.1" id="Calque_1" xmlns="http://www.w3.org/2000/svg" xmlns:xlink="http://www.w3.org/1999/xlink" x="0px" y="0px"
	 viewBox="0 0 27.8 27.8" style="enable-background:new 0 0 27.8 27.8;" xml:space="preserve">
<style type="text/css">
	.st0{fill:#F5F5F5;}
	.st1{fill:#B88DFF;}
	.st2{fill:#FFFFFF;}
</style>
<rect x="1950.3" y="-7395.5" class="st0" width="1319.5" height="147"/>
<rect x="827.4" y="-4693.9" class="st0" width="1319.5" height="147"/>
<path class="st1" d="M9.2,26.5c-1.4,0-3.1-1-3.8-2.2l-4.8-8.2c-0.7-1.2-0.7-3.2,0-4.4l4.8-8.2c0.7-1.2,2.4-2.2,3.8-2.2h9.5
	c1.4,0,3.1,1,3.8,2.2l4.8,8.2c0.7,1.2,0.7,3.2,0,4.4l-4.8,8.2c-0.7,1.2-2.4,2.2-3.8,2.2H9.2z"/>
<g>
	<path class="st2" d="M13.9,7.9l0.1,1C13.9,8.9,13.7,9,13.5,9c-0.2,0-0.3,0.1-0.5,0.1c0,0.5,0,1,0.1,1.6c0,0.6,0,1.1,0,1.7
		s0,1.2,0,1.7c0,0.6,0,1.1,0,1.7c0.2,0,0.4,0,0.6,0s0.3,0,0.5,0h0.4l0.1,0.9c-0.3,0-0.5,0.1-0.7,0.1s-0.5,0.1-0.7,0.1
		c0,0.4,0,0.8,0,1.2s0,0.7,0,0.9c0,0.3,0,0.6,0,0.8h-1.2c-0.1-0.3-0.1-0.7-0.1-1.2c0-0.5-0.1-1.1-0.1-1.7c-0.7,0-1.3,0-1.9,0
		s-1,0-1.4-0.1c-0.5,0-0.9-0.1-1.3-0.1l-0.1-1.5c0.2,0,0.4,0,0.6,0.1c0.2,0,0.4,0,0.7,0.1c0-0.3,0.1-0.6,0.1-1.1
		c0-0.5,0.1-1,0.1-1.6c0-0.6,0-1.2,0.1-1.8c0-0.6,0-1.3,0-1.9l1-0.1C9.1,9,8.9,9,8.6,8.9S8.2,8.9,8,8.8c-0.2,0-0.4-0.1-0.6-0.1
		l0.1-1L13.9,7.9z M9.7,15.6c0.3,0,0.6,0,0.9,0c0.3,0,0.6,0,0.9,0c0-0.6,0-1.3,0-2c0-0.7,0-1.3,0-1.9s0-1.1,0-1.6c0-0.5,0-0.8,0-1.1
		c-0.3,0-0.6,0-1,0c-0.3,0-0.6-0.1-0.9-0.1l0.1,1.7l1.2-0.1l0.1,1l-1.2,0.1c0,0.2,0,0.5,0,0.7c0,0.2,0,0.5,0,0.7l1.2-0.1l0.1,1.1
		l-1.3,0.1c0,0.3,0,0.5,0,0.8C9.7,15.2,9.7,15.4,9.7,15.6z M15.4,11.3c0.4,0,0.8,0,1.2-0.1c0.4,0,0.8-0.1,1.2-0.1
		c0.4,0,0.9-0.1,1.3-0.2c0.5-0.1,1-0.1,1.5-0.2l0.1,1.3c-0.3,0.1-0.7,0.2-1.1,0.3c-0.4,0.1-0.7,0.1-1.1,0.1c0,0.3,0,0.6,0,0.9
		c0,0.3,0,0.6,0,0.8c0.4,0,0.8,0,1.2,0.1c0.4,0,0.7,0,1,0c0.3,0,0.7,0,1,0v1c-0.3,0.1-0.6,0.1-1,0.2c-0.3,0-0.7,0.1-1.1,0.1
		s-0.9,0-1.4,0c-0.2,0.7-0.4,1.3-0.8,1.9c-0.4,0.5-0.8,1-1.4,1.3L15,17.7c0.3-0.3,0.6-0.7,0.8-1.1c0.3-0.4,0.5-0.7,0.7-1.1
		c-0.3,0-0.7-0.1-1-0.2c-0.3-0.1-0.7-0.1-1-0.2l0.2-1.3c0.3,0.1,0.7,0.1,1.1,0.2c0.4,0,0.8,0.1,1.3,0.1c0.1-0.2,0.1-0.5,0.2-0.7
		c0.1-0.3,0.1-0.5,0.2-0.8c-0.3,0-0.6,0-0.8,0s-0.5,0-0.6-0.1c-0.2,0-0.4,0-0.6-0.1L15.4,11.3z M16.1,10.5c-0.2-0.2-0.3-0.3-0.4-0.5
		c-0.1-0.2-0.2-0.4-0.3-0.6c-0.1-0.2-0.2-0.5-0.2-0.8l0.8-0.5c0.1,0.2,0.2,0.3,0.4,0.5c0.1,0.2,0.2,0.3,0.4,0.5
		c0.2,0.2,0.3,0.4,0.5,0.6L16.1,10.5z M18.4,9.7C18.6,9.5,18.9,9.2,19,9c0.2-0.2,0.3-0.4,0.5-0.7c0.2-0.3,0.3-0.5,0.4-0.7L21,7.9
		c-0.1,0.3-0.2,0.7-0.3,1c-0.1,0.3-0.2,0.6-0.4,0.9c-0.2,0.3-0.4,0.6-0.7,0.8L18.4,9.7z M19.4,16.1c0.4,0.4,0.7,0.7,1.1,0.9
		c0.3,0.2,0.8,0.5,1.2,0.8l-1,1.2c-0.3-0.1-0.5-0.2-0.7-0.4c-0.2-0.2-0.4-0.4-0.6-0.7s-0.4-0.7-0.6-1.2L19.4,16.1z"/>
</g>
</svg>
