<?xml version="1.0" encoding="utf-8"?>
<!-- Generator: Adobe Illustrator 21.0.0, SVG Export Plug-In . SVG Version: 6.00 Build 0)  -->
<svg version="1.1" id="Calque_1" xmlns="http://www.w3.org/2000/svg" xmlns:xlink="http://www.w3.org/1999/xlink" x="0px" y="0px"
	 viewBox="0 0 27.8 27.8" style="enable-background:new 0 0 27.8 27.8;" xml:space="preserve">
<style type="text/css">
	.st0{fill:#F5F5F5;}
	.st1{fill:#66CC7A;}
	.st2{fill:#FFFFFF;}
</style>
<rect x="1950.3" y="-7395.5" class="st0" width="1319.5" height="147"/>
<rect x="827.4" y="-4693.9" class="st0" width="1319.5" height="147"/>
<g>
	<circle class="st1" cx="13.9" cy="13.9" r="13.9"/>
</g>
<g>
	<path class="st2" d="M9.2,14.8l0.2-3.1c-0.2,0-0.5,0-0.7,0.1c-0.2,0-0.4,0-0.6,0H7.6l-0.1-1.3c0.6-0.1,1.1-0.1,1.7-0.2
		c0.5,0,1-0.1,1.5-0.1c0.5,0,1-0.1,1.5-0.1l0.1,0.9c-0.3,0.2-0.7,0.3-1.2,0.4c-0.4,0.1-0.9,0.2-1.3,0.2l1.4,0.3
		c0,0.5-0.1,1.1-0.2,1.6c-0.1,0.5-0.2,0.9-0.3,1.3l1.9,0l0.1,1c-0.5,0.3-1.1,0.4-1.7,0.4s-1.2,0-1.7,0c-0.6-0.1-1.2-0.2-1.9-0.3
		l0.1-1.1L9.2,14.8z M12.8,8.4c0.9,0,1.7-0.1,2.6-0.1c0.8,0,1.6-0.1,2.5-0.2c0.9-0.1,1.8-0.2,2.6-0.3l0.1,1.4
		c-0.3,0.1-0.7,0.1-1.1,0.2c-0.3,0-0.8,0.1-1.2,0.1c-0.5,0-1,0.1-1.6,0.1c-0.2,0.7-0.3,1.2-0.5,1.7c-0.2,0.4-0.3,0.8-0.4,1.1
		c-0.1,0.3-0.3,0.6-0.4,0.7c0.4,0,0.8,0,1.3-0.1c0.5,0,1,0,1.4,0c0.5,0,1,0,1.6,0c0.2,1,0.3,1.9,0.3,2.6c0.1,0.7,0.1,1.3,0.1,1.8
		c0,0.5,0,1-0.1,1.3c-0.4,0.1-0.7,0.2-1.1,0.2c-0.4,0-0.8,0-1.1,0c-0.4,0-0.8,0-1.1-0.1v-1.1c0.2,0,0.4,0,0.6,0c0.2,0,0.4,0,0.6-0.1
		c0.2,0,0.5,0,0.7-0.1c-0.1-0.4-0.3-0.8-0.3-1.2s-0.1-0.7-0.2-1c0-0.3-0.1-0.7-0.1-1c-0.5,0.1-1,0.1-1.4,0.1c-0.5,0-0.9,0-1.3-0.1
		c-0.5,0-0.9-0.1-1.4-0.2L14,13c0-0.2,0.1-0.5,0.2-0.8s0.2-0.7,0.3-1.1c0.1-0.4,0.2-0.7,0.2-1s0.1-0.5,0.2-0.7c-0.3,0-0.7-0.1-1-0.1
		s-0.7-0.1-1.1-0.1L12.8,8.4z"/>
</g>
</svg>
