<?xml version="1.0" encoding="utf-8"?>
<!-- Generator: Adobe Illustrator 21.0.0, SVG Export Plug-In . SVG Version: 6.00 Build 0)  -->
<svg version="1.1" id="Calque_1" xmlns="http://www.w3.org/2000/svg" xmlns:xlink="http://www.w3.org/1999/xlink" x="0px" y="0px"
	 viewBox="0 0 27.8 27.8" style="enable-background:new 0 0 27.8 27.8;" xml:space="preserve">
<style type="text/css">
	.st0{fill:#F5F5F5;}
	.st1{fill:#F264F2;}
	.st2{fill:#FFFFFF;}
</style>
<rect x="1950.3" y="-7395.5" class="st0" width="1319.5" height="147"/>
<rect x="827.4" y="-4693.9" class="st0" width="1319.5" height="147"/>
<path class="st1" d="M26.2,20.1c0,3.3-2.7,6-6,6H7.6c-3.3,0-6-2.7-6-6V7.3c0-3.3,2.7-6,6-6h12.7c3.3,0,6,2.7,6,6V20.1z"/>
<g>
	<path class="st2" d="M7.8,8.2c0.3,0,0.8-0.1,1.3-0.1s1.1,0,1.7,0c0.6,0,1.3,0,2,0c0.7,0,1.4,0,2,0.1c1.5,0.1,3.2,0.1,5,0.3
		c0.1,1.5,0.2,2.9,0.2,4.2c0,1.3,0,2.5-0.1,3.5c-0.1,1.2-0.2,2.3-0.3,3.3c-0.3,0.1-0.7,0.2-1.1,0.2s-0.7,0-1.1,0
		c-0.4,0-0.8-0.1-1.1-0.2l-0.1-1.4l1.7,0c0-1.1,0.1-2.2,0.1-3.2c0-0.4,0-0.9,0-1.4c0-0.5,0-1,0-1.4c0-0.5,0-0.9,0-1.4s0-0.8,0-1.2
		c-0.1,0-0.3,0-0.6-0.1c-0.3,0-0.7,0-1.1-0.1s-0.9,0-1.4-0.1c-0.5,0-1,0-1.5,0c-1.2,0-2.6-0.1-4.1-0.1c0,0.8,0,1.6,0,2.5
		c0,0.8,0,1.7,0,2.5s-0.1,1.5-0.1,2.2c-0.1,0.7-0.2,1.3-0.3,1.8c0,0-0.1,0-0.3,0s-0.4,0-0.6-0.1c-0.3,0-0.6,0-1-0.1
		c0.1-0.5,0.2-1.2,0.2-2c0.1-0.8,0.1-1.7,0.2-2.6s0.1-1.8,0.2-2.7S7.8,8.9,7.8,8.2z M10.8,11.5c0.1,0.2,0.3,0.4,0.4,0.6
		s0.3,0.4,0.4,0.5c0.2-0.2,0.3-0.5,0.5-0.8c0.1-0.3,0.2-0.6,0.3-0.9l1.1,0.6c-0.1,0.2-0.1,0.4-0.2,0.6c-0.1,0.2-0.2,0.4-0.3,0.7
		c-0.1,0.2-0.3,0.5-0.4,0.7c0.3,0.2,0.5,0.4,0.7,0.5c0.1,0.1,0.2,0.1,0.3,0.2L13,15.1c-0.2-0.1-0.5-0.2-0.7-0.3
		c-0.2-0.1-0.4-0.2-0.5-0.3c-0.2,0.2-0.5,0.4-0.7,0.5c-0.3,0.1-0.6,0.2-0.9,0.3l-0.5-0.8c0.1-0.1,0.2-0.1,0.3-0.2
		c0.1-0.1,0.2-0.2,0.3-0.3c0.1-0.1,0.3-0.2,0.4-0.4c-0.2-0.2-0.3-0.3-0.4-0.5c-0.1-0.1-0.2-0.3-0.3-0.4c-0.1-0.1-0.1-0.3-0.2-0.4
		L10.8,11.5z M14.6,11.8c0.1,0.2,0.3,0.4,0.4,0.6c0.1,0.2,0.3,0.4,0.4,0.6c0.2-0.2,0.3-0.5,0.5-0.7c0.1-0.2,0.3-0.5,0.4-0.8l1,0.6
		c0,0.2-0.1,0.4-0.2,0.6c-0.1,0.2-0.2,0.4-0.3,0.7c-0.1,0.2-0.3,0.5-0.4,0.7c0.1,0.1,0.3,0.3,0.4,0.4s0.2,0.2,0.3,0.3
		c0.1,0.1,0.2,0.2,0.3,0.2L17,15.9c-0.3-0.1-0.5-0.2-0.7-0.3c-0.2-0.1-0.4-0.3-0.6-0.4c-0.2,0.2-0.5,0.3-0.7,0.5
		c-0.3,0.1-0.6,0.3-0.9,0.4l-0.7-0.8c0.1-0.1,0.2-0.2,0.4-0.3c0.1-0.1,0.3-0.2,0.4-0.3c0.1-0.1,0.3-0.3,0.5-0.4
		c-0.2-0.2-0.3-0.3-0.4-0.5c-0.1-0.2-0.2-0.3-0.3-0.4c-0.1-0.1-0.2-0.3-0.2-0.4L14.6,11.8z"/>
</g>
</svg>
