<?xml version="1.0" encoding="utf-8"?>
<!-- Generator: Adobe Illustrator 21.0.0, SVG Export Plug-In . SVG Version: 6.00 Build 0)  -->
<svg version="1.1" id="Calque_1" xmlns="http://www.w3.org/2000/svg" xmlns:xlink="http://www.w3.org/1999/xlink" x="0px" y="0px"
	 viewBox="0 0 27.8 27.8" style="enable-background:new 0 0 27.8 27.8;" xml:space="preserve">
<style type="text/css">
	.st0{fill:#F5F5F5;}
	.st1{fill:#282828;}
	.st2{fill:#FFFFFF;}
</style>
<rect x="1950.3" y="-7395.5" class="st0" width="1319.5" height="147"/>
<rect x="827.4" y="-4693.9" class="st0" width="1319.5" height="147"/>
<g>
	<path class="st1" d="M26.2,20.1c0,3.3-2.7,6-6,6H7.6c-3.3,0-6-2.7-6-6V7.3c0-3.3,2.7-6,6-6h12.7c3.3,0,6,2.7,6,6V20.1z"/>
</g>
<g>
	<path class="st2" d="M6.6,14.7c0.3-0.2,0.6-0.4,1-0.7c0.3-0.2,0.6-0.5,0.8-0.7c0.3-0.3,0.5-0.6,0.8-0.9l1.2,0.7c0,0,0,0.1-0.1,0.4
		c-0.1,0.2-0.2,0.5-0.4,0.8s-0.4,0.7-0.8,1c-0.3,0.4-0.8,0.7-1.4,1L6.6,14.7z M13.3,17.1c-0.2-1.6-0.3-3-0.5-4.3
		c-0.1-0.6-0.1-1.1-0.2-1.6c-0.1-0.5-0.1-1.1-0.2-1.5c0-0.5-0.1-0.9-0.1-1.2c0-0.3,0-0.6,0-0.7l1.9-0.1c0.2,1.6,0.3,3.1,0.4,4.5
		c0,0.6,0.1,1.2,0.1,1.8c0,0.6,0.1,1.2,0.1,1.8c0,0.6,0,1.1,0,1.6c0,0.5,0,0.9-0.1,1.2c-0.3,0.1-0.6,0.2-0.9,0.2
		c-0.3,0-0.6,0.1-1,0.1c-0.4,0-0.7,0-1.2-0.1l-0.2-1.4L13.3,17.1z M19.7,16c-0.4-0.2-0.7-0.4-1-0.7c-0.3-0.2-0.6-0.5-0.9-0.8
		c-0.3-0.3-0.6-0.7-0.9-1.1l0.8-0.9c0.3,0.2,0.6,0.4,1,0.6c0.3,0.2,0.6,0.4,1,0.6s0.8,0.4,1.2,0.5L19.7,16z"/>
</g>
</svg>
