<?xml version="1.0" encoding="utf-8"?>
<!-- Generator: Adobe Illustrator 21.0.0, SVG Export Plug-In . SVG Version: 6.00 Build 0)  -->
<svg version="1.1" id="Calque_1" xmlns="http://www.w3.org/2000/svg" xmlns:xlink="http://www.w3.org/1999/xlink" x="0px" y="0px"
	 viewBox="0 0 27.8 27.8" style="enable-background:new 0 0 27.8 27.8;" xml:space="preserve">
<style type="text/css">
	.st0{fill:#F5F5F5;}
	.st1{fill:#F95F5F;}
	.st2{fill:#FFFFFF;}
</style>
<rect x="1950.3" y="-7395.5" class="st0" width="1319.5" height="147"/>
<rect x="827.4" y="-4693.9" class="st0" width="1319.5" height="147"/>
<g>
	<path class="st1" d="M26.2,20.1c0,3.3-2.7,6-6,6H7.6c-3.3,0-6-2.7-6-6V7.3c0-3.3,2.7-6,6-6h12.7c3.3,0,6,2.7,6,6L26.2,20.1
		L26.2,20.1z"/>
</g>
<g>
	<path class="st2" d="M7.1,11.9c0.2-0.8,0.4-1.4,0.5-1.9c0.1-0.5,0.2-0.9,0.2-1.3l1.7,0.2V9c0,0,0,0.1,0,0.2c0,0.1,0,0.1,0,0.2
		c0.3,0,0.7,0,1.2,0c0.5,0,1,0,1.6,0c0.6,0,1.2,0,1.9,0c0.6,0,1.3,0,1.9,0.1c0.6,0,1.1,0.1,1.6,0.1c0.5,0.1,0.9,0.1,1.1,0.2
		c-0.1,0.4-0.2,0.7-0.3,1c-0.1,0.3-0.2,0.6-0.3,0.8c-0.1,0.3-0.2,0.5-0.3,0.6l-1.6-0.4c0-0.1,0.1-0.3,0.1-0.4c0-0.1,0.1-0.3,0.1-0.4
		c0-0.1,0.1-0.3,0.2-0.4c-1.1,0-2.1,0-3,0c-0.4,0-0.8,0-1.3,0c-0.4,0-0.8,0-1.2,0c-0.4,0-0.8,0-1.1,0c-0.3,0-0.6,0-0.9-0.1
		c-0.1,0.3-0.2,0.6-0.4,0.9c-0.2,0.3-0.4,0.5-0.7,0.7L7.1,11.9z M13.6,13.3c-0.4,0-0.7,0-1.1,0c-0.3,0-0.7-0.1-1.1-0.1
		s-0.7-0.2-1.1-0.3l0.5-1.3c0.5,0.1,1,0.3,1.5,0.4c0.4,0.1,0.9,0.2,1.4,0.2c0.5,0.1,1,0.1,1.6,0l0.6,0.8c-0.2,0.3-0.4,0.6-0.6,0.9
		c-0.2,0.2-0.4,0.5-0.6,0.8c-0.2,0.3-0.5,0.5-0.7,0.7c0.1,0.1,0.2,0.2,0.3,0.3c0.2,0.2,0.4,0.5,0.7,0.8c0.5,0,0.9,0,1.3,0
		c0.4,0,0.7,0,1,0c0.3,0,0.6,0,0.9,0v1.2c-0.9,0.1-1.7,0.2-2.5,0.2c0,0.1,0,0.2,0,0.2c0,0.1,0,0.2,0,0.3c0,0.5-0.1,0.9-0.2,1.2
		c-0.1,0.3-0.3,0.6-0.5,0.8c-0.2,0.2-0.5,0.3-0.8,0.4s-0.6,0.1-0.9,0c-0.3,0-0.6-0.1-0.9-0.3c-0.3-0.1-0.5-0.3-0.8-0.5l0.3-0.9
		c0.4,0.1,0.7,0.2,1,0.1c0.2,0,0.5-0.1,0.7-0.3s0.3-0.5,0.3-0.9v-0.3c-0.8,0-1.4-0.1-2-0.2c-0.6-0.1-1.1-0.2-1.5-0.2
		c-0.5-0.1-1-0.2-1.4-0.3l0.2-0.9c0.7,0.1,1.4,0.1,2.1,0.1c0.7,0,1.4,0.1,2,0.1c-0.2-0.3-0.4-0.5-0.6-0.6c-0.1-0.1-0.2-0.2-0.3-0.2
		L13.6,13.3z M10.3,6.3c0.2,0.3,0.3,0.7,0.5,1s0.3,0.6,0.4,0.9l-1.2,0.7C9.9,8.6,9.7,8.4,9.6,8.2C9.5,8.1,9.4,7.8,9.3,7.6
		C9.2,7.3,9.1,7,9.1,6.7L10.3,6.3z M13.4,5.7C13.6,6.2,13.8,6.6,14,7c0.2,0.4,0.4,0.6,0.5,0.9l-1.2,0.7c-0.2-0.2-0.4-0.5-0.5-0.7
		c-0.1-0.2-0.2-0.5-0.3-0.8c-0.1-0.3-0.2-0.6-0.2-0.9L13.4,5.7z M15.3,8.3c0.2-0.2,0.4-0.4,0.5-0.7c0.2-0.2,0.3-0.5,0.4-0.7
		c0.1-0.2,0.2-0.5,0.3-0.7l1.5,0.7c-0.1,0.4-0.2,0.7-0.3,1c-0.2,0.3-0.3,0.5-0.5,0.6c-0.2,0.2-0.4,0.3-0.7,0.5L15.3,8.3z"/>
</g>
</svg>
